PathFileType	4	(x/y/z)	A01_T0012.trc
DataRate	CameraRate	NumFrames	NumMarkers	Units	OrigDataRate	OrigDataStartFrame	OrigNumFrames
240	240	5	47	mm	240	901	1200
Frame#	Time	R_AC			L_AC			R_ASIS			L_ASIS			R_PSIS			L_PSIS			R_GT			L_GT			R_IC			L_IC			SACRAL			R_THIGH_PROX_POST			L_THIGH_PROX_POST			R_THIGH_PROX_ANT			L_THIGH_PROX_ANT			R_THIGH_DIST_POST			L_THIGH_DIST_POST			R_THIGH_DIST_ANT			L_THIGH_DIST_ANT			R_LAT_KNEE			R_MED_KNEE			L_LAT_KNEE			L_MED_KNEE			L_PROS_PROX_ANT			L_PROS_PROX_POST			L_PROS_DIST_ANT			L_PROS_DIST_POST			R_LL_PROX_ANT			R_LL_PROX_POST			R_LL_DIST_POST			R_LL_DIST_ANT			R_LAT_ANK			R_MED_ANK			L_MED_ANK			L_LAT_ANK			L_TOE			R_TOE			L_5TH_MET			L_1ST_MET			R_1ST_MET			R_5TH_MET			R_HEEL_SUP			L_HEEL_SUP			R_HEEL_LAT			L_HEEL_LAT			L_HEEL_MED			R_HEEL_MED			
		X1	Y1	Z1	X2	Y2	Z2	X3	Y3	Z3	X4	Y4	Z4	X5	Y5	Z5	X6	Y6	Z6	X7	Y7	Z7	X8	Y8	Z8	X9	Y9	Z9	X10	Y10	Z10	X11	Y11	Z11	X12	Y12	Z12	X13	Y13	Z13	X14	Y14	Z14	X15	Y15	Z15	X16	Y16	Z16	X17	Y17	Z17	X18	Y18	Z18	X19	Y19	Z19	X20	Y20	Z20	X21	Y21	Z21	X22	Y22	Z22	X23	Y23	Z23	X24	Y24	Z24	X25	Y25	Z25	X26	Y26	Z26	X27	Y27	Z27	X28	Y28	Z28	X29	Y29	Z29	X30	Y30	Z30	X31	Y31	Z31	X32	Y32	Z32	X33	Y33	Z33	X34	Y34	Z34	X35	Y35	Z35	X36	Y36	Z36	X37	Y37	Z37	X38	Y38	Z38	X39	Y39	Z39	X40	Y40	Z40	X41	Y41	Z41	X42	Y42	Z42	X43	Y43	Z43	X44	Y44	Z44	X45	Y45	Z45	X46	Y46	Z46	X47	Y47	Z47	

901	3.7531	592.75	1577.4	531.72	645.15	1592.1	110.84	694.15	1084.3	523.25	761.09	1068.2	169.41	505.1	1078	358.29	535.27	1090.3	232.83	629.15	970.8	546.32	712.14	977.02	114.1	635.66	1184.1	528.82	721.1	1176.3	127.73	505.82	1054.7	288.57	594.66	842.89	525.08	710.93	837.09	123.4	661.52	865.77	541.35	776.05	833.34	153.99	606.17	754.18	522.21	722.62	761.8	133.49	670.43	774.58	539.45	782.7	759.55	160.19	635.26	563.13	502.25	685.1	552.6	377.67	719.6	581.48	152.16	732.79	555.01	307.78	745.87	490.58	156.76	692.63	503.32	145.07	725.57	437.71	157.22	672.75	443.23	146.81	575.75	386.86	527.77	513.05	404.34	494.11	518.11	321.33	494.18	568.97	311.76	516.28	521.74	110.64	490.43	559.55	115.35	390.43	597.96	146.74	200.09	570.29	150.62	133.09	793.19	75.832	150.69	766.11	72.705	469.96	679.37	53.594	78.321	710.31	57.403	206.08	690.17	57.674	410.82	641.38	45.963	538.85	440.21	69.04	421.02	473.96	107.94	164.44	442.93	44.966	456.09	479.8	79.011	133.2	488.98	76.104	196.03	454.82	43.217	395.13
902	3.7573	592.74	1577.4	531.72	645.17	1592.1	110.83	694.13	1084.3	523.22	761.07	1068.2	169.38	505.09	1078	358.26	535.25	1090.3	232.8	629.14	970.82	546.29	712.13	977.02	114.08	635.64	1184.1	528.79	721.07	1176.3	127.71	505.81	1054.7	288.54	594.64	842.9	525.06	710.93	837.08	123.38	661.49	865.78	541.33	776.04	833.34	153.98	606.15	754.19	522.19	722.62	761.79	133.48	670.4	774.58	539.43	782.7	759.55	160.18	635.23	563.13	502.23	685.06	552.61	377.65	719.62	581.49	152.15	732.81	555.02	307.78	745.89	490.58	156.76	692.65	503.32	145.07	725.58	437.71	157.22	672.76	443.24	146.81	575.72	386.87	527.75	513.01	404.34	494.08	518.09	321.33	494.17	568.93	311.77	516.27	521.73	110.64	490.43	559.54	115.35	390.43	597.97	146.74	200.09	570.29	150.62	133.09	793.2	75.828	150.69	766.11	72.71	469.95	679.37	53.597	78.321	710.31	57.403	206.08	690.16	57.675	410.81	641.38	45.964	538.85	440.21	69.037	421.02	473.97	107.95	164.44	442.93	44.962	456.09	479.8	79.02	133.21	488.99	76.113	196.04	454.81	43.211	395.13
903	3.7615	592.72	1577.4	531.73	645.2	1592.2	110.83	694.11	1084.4	523.19	761.06	1068.2	169.35	505.07	1078	358.23	535.24	1090.3	232.78	629.12	970.83	546.26	712.12	977.01	114.06	635.63	1184.2	528.75	721.05	1176.3	127.69	505.79	1054.7	288.51	594.62	842.91	525.03	710.93	837.08	123.37	661.47	865.78	541.31	776.04	833.34	153.96	606.12	754.19	522.16	722.62	761.79	133.48	670.37	774.59	539.41	782.71	759.55	160.17	635.2	563.13	502.21	685.03	552.61	377.63	719.63	581.5	152.14	732.83	555.02	307.78	745.9	490.58	156.76	692.66	503.32	145.07	725.6	437.72	157.22	672.77	443.24	146.81	575.68	386.88	527.73	512.98	404.34	494.06	518.06	321.33	494.15	568.91	311.78	516.25	521.73	110.64	490.43	559.54	115.35	390.43	597.97	146.75	200.09	570.3	150.63	133.09	793.2	75.822	150.69	766.1	72.715	469.95	679.37	53.6	78.321	710.32	57.404	206.08	690.16	57.676	410.81	641.38	45.965	538.85	440.2	69.034	421.01	473.97	107.96	164.45	442.92	44.959	456.09	479.8	79.029	133.21	488.99	76.124	196.04	454.81	43.206	395.13
904	3.7656	592.71	1577.5	531.73	645.22	1592.2	110.83	694.09	1084.4	523.16	761.04	1068.2	169.32	505.06	1078	358.2	535.23	1090.3	232.75	629.1	970.84	546.23	712.11	977.01	114.03	635.61	1184.2	528.72	721.02	1176.3	127.66	505.78	1054.7	288.47	594.6	842.92	525.01	710.93	837.07	123.35	661.44	865.79	541.29	776.04	833.34	153.94	606.1	754.2	522.14	722.63	761.78	133.47	670.34	774.6	539.39	782.71	759.55	160.15	635.17	563.14	502.19	685	552.62	377.61	719.65	581.51	152.13	732.86	555.02	307.78	745.92	490.59	156.76	692.68	503.33	145.07	725.61	437.72	157.22	672.79	443.25	146.81	575.65	386.89	527.72	512.95	404.34	494.05	518.03	321.33	494.14	568.88	311.79	516.24	521.72	110.63	490.42	559.53	115.35	390.43	597.98	146.75	200.1	570.31	150.64	133.09	793.21	75.816	150.69	766.1	72.719	469.95	679.37	53.603	78.32	710.32	57.405	206.08	690.16	57.677	410.81	641.38	45.966	538.85	440.19	69.032	421.01	473.97	107.97	164.46	442.92	44.955	456.09	479.8	79.039	133.22	489	76.136	196.05	454.8	43.201	395.13
905	3.7698	592.7	1577.5	531.73	645.24	1592.2	110.83	694.07	1084.4	523.13	761.03	1068.2	169.29	505.04	1078	358.17	535.22	1090.3	232.72	629.08	970.85	546.2	712.1	977	114.01	635.6	1184.2	528.68	721	1176.4	127.64	505.76	1054.7	288.44	594.58	842.93	524.98	710.93	837.06	123.34	661.42	865.79	541.27	776.05	833.34	153.93	606.07	754.2	522.12	722.64	761.77	133.46	670.32	774.6	539.38	782.72	759.55	160.14	635.15	563.14	502.17	684.98	552.63	377.59	719.67	581.52	152.12	732.88	555.02	307.78	745.94	490.59	156.77	692.7	503.33	145.07	725.63	437.72	157.22	672.81	443.25	146.81	575.62	386.9	527.7	512.93	404.34	494.03	518.01	321.33	494.12	568.86	311.79	516.23	521.72	110.63	490.42	559.53	115.35	390.43	597.99	146.76	200.1	570.31	150.65	133.1	793.21	75.81	150.69	766.1	72.723	469.95	679.38	53.607	78.32	710.32	57.406	206.08	690.16	57.678	410.81	641.38	45.967	538.85	440.18	69.029	421.01	473.98	107.99	164.46	442.92	44.953	456.09	479.8	79.05	133.23	489	76.15	196.05	454.79	43.197	395.13
